How to Train Your Dragon (2010) x264  

Hoe Tem Je een Draak   

 

Verenigde Staten
Animatie / Avontuur
98 minuten

geregisseerd door Dean DeBlois en Chris Sanders
met de stemmen van Jay Baruchel, Gerard Butler en America Ferrera

De jonge viking Hiccup woont op het eiland Berk, waar draken bevechten een manier van leven is. De intelligentie en de eigenwijze humor van de tiener vallen niet in goede aarde bij de stamleden en het stamhoofd... dat niemand minder is dan de vader van Hiccup. Maar wanneer Hiccup samen met andere Vikingjongens drakentraining krijgt, ziet hij zijn kans schoon om te bewijzen dat hij uit het goede hout gesneden is om krijger te worden. Wanneer hij echter een gewonde draak ontmoet, wordt zijn wereld ondersteboven gegooid, en wat begon als de enige gelegenheid voor Hiccup om zichzelf te bewijzen, verandert in een kans op een nieuwe toekomst voor de hele stam...

English

Storyline
Long ago up North on the Island of Berk, the young Viking, Hiccup, wants to join his town's fight against the dragons that continually raid their town. However, his macho father and village leader, Stoik the Vast, will not allow his small, clumsy, but inventive son to do so. Regardless, Hiccup ventures out into battle and downs a mysterious Night Fury dragon with his invention, but can't bring himself to kill it. Instead, Hiccup and the dragon, whom he dubs Toothless, begin a friendship that would open up both their worlds as the observant boy learns that his people have misjudged the species. But even as the two each take flight in their own way, they find that they must fight the destructive ignorance plaguing their world




 SouRCe : Blu-Ray (L)
 ENCoDeR : x264 L4.1
 ReSoLuTioN : 1920x816
 FRaMeRaTe : 23.976 FPS



 LaNGuaGe ......... English
 SouRCe ........... Blu-Ray
 CoDeC ............ DTS 5.1 1.5 mbps

 LaNGuaGe ......... Dutch
 SouRCe ........... Blu-Ray
 CoDeC ............ AC3 5.1 640 kbps



SuBTiTLes : Dutch
 FoRMaT : SRT


CoNTaiNer : MKV w/ chapters
 FiLeSiZe : 7.9 GiB (DVD9)

Categorie : Beeld 
Formaat : x264HD 
Bron : Retail
 
Ondertitels : Nederlands (instelbaar)

Format                           : Matroska
File size                        : 7.94 GiB
Duration                         : 1h 38mn
Overall bit rate                 : 11.6 Mbps
Encoded date                     : UTC 2010-10-30 18:16:15
Writing application              : mkvmerge v4.0.0 ('The Stars were mine') built on Jun  5 2010 17:44:09
Writing library                  : libebml v1.0.0 + libmatroska v1.0.0

Video
ID                               : 1
Format                           : AVC
Format/Info                      : Advanced Video Codec
Format profile                   : High@L4.1
Format settings, CABAC           : Yes
Format settings, ReFrames        : 5 frames
Muxing mode                      : Container profile=Unknown@4.1
Codec ID                         : V_MPEG4/ISO/AVC
Duration                         : 1h 38mn
Bit rate                         : 9 469 Kbps
Width                            : 1 920 pixels
Height                           : 816 pixels
Display aspect ratio             : 2.35:1
Frame rate                       : 23.976 fps
Color space                      : YUV
Chroma subsampling               : 4:2:0
Bit depth                        : 8 bits
Scan type                        : Progressive
Bits/(Pixel*Frame)               : 0.252
Stream size                      : 6.31 GiB (79%)
Writing library                  : x264 core 107 r1745 4785e8e
Encoding settings                : cabac=1 / ref=5 / deblock=1:-2:-1 / analyse=0x3:0x113 / me=umh / subme=10 / psy=1 / psy_rd=0.95:0.05 / mixed_ref=1 / me_range=24 / chroma_me=1 / trellis=2 / 8x8dct=1 / cqm=0 / deadzone=21,11 / fast_pskip=1 / chroma_qp_offset=-3 / threads=3 / sliced_threads=0 / nr=0 / decimate=1 / interlaced=0 / constrained_intra=0 / bframes=6 / b_pyramid=2 / b_adapt=2 / b_bias=0 / direct=3 / weightb=1 / open_gop=0 / weightp=2 / keyint=250 / keyint_min=23 / scenecut=40 / intra_refresh=0 / rc_lookahead=40 / rc=2pass / mbtree=0 / bitrate=9469 / ratetol=1.0 / qcomp=0.60 / qpmin=10 / qpmax=51 / qpstep=4 / cplxblur=20.0 / qblur=0.5 / vbv_maxrate=30000 / vbv_bufsize=40000 / ip_ratio=1.40 / pb_ratio=1.30 / aq=1:1.05 / zones=131011,140498,q=25,deblock=1:2 / nal_hrd=none

Audio #1
ID                               : 2
Format                           : DTS
Format/Info                      : Digital Theater Systems
Codec ID                         : A_DTS
Duration                         : 1h 38mn
Bit rate mode                    : Constant
Bit rate                         : 1 510 Kbps
Channel(s)                       : 6 channels
Channel positions                : Front: L C R, Side: L R, LFE
Sampling rate                    : 48.0 KHz
Bit depth                        : 24 bits
Stream size                      : 1.04 GiB (13%)
Language                         : English

Audio #2
ID                               : 3
Format                           : AC-3
Format/Info                      : Audio Coding 3
Mode extension                   : CM (complete main)
Codec ID                         : A_AC3
Duration                         : 1h 38mn
Bit rate mode                    : Constant
Bit rate                         : 640 Kbps
Channel(s)                       : 6 channels
Channel positions                : Front: L C R, Side: L R, LFE
Sampling rate                    : 48.0 KHz
Bit depth                        : 16 bits
Stream size                      : 450 MiB (6%)
Language                         : Dutch

Text
ID                               : 4
Format                           : UTF-8
Codec ID                         : S_TEXT/UTF8
Codec ID/Info                    : UTF-8 Plain Text
Language                         : Dutch

Menu
00:00:00.000                     : en:00:00:00.000
00:08:38.768                     : en:00:08:38.768
00:11:30.982                     : en:00:11:30.982
00:15:10.034                     : en:00:15:10.034
00:21:56.065                     : en:00:21:56.065
00:27:40.701                     : en:00:27:40.701
00:33:13.200                     : en:00:33:13.200
00:39:06.135                     : en:00:39:06.135
00:43:27.688                     : en:00:43:27.688
00:47:07.366                     : en:00:47:07.366
00:49:46.192                     : en:00:49:46.192
00:59:54.800                     : en:00:59:54.800
01:04:46.382                     : en:01:04:46.382
01:09:27.163                     : en:01:09:27.163
01:12:37.186                     : en:01:12:37.186
01:23:25.042                     : en:01:23:25.042
01:28:53.495                     : en:01:28:53.495


 
Genre : Avontuur
Animatie
 
Weblink :  http://www.moviemeter.nl/film/52147
Weblink :  http://www.imdb.com/title/tt0892769 

*****************************************

Brought to you by 
2Lions Team